<svg version="1.1" xmlns="http://www.w3.org/2000/svg" xmlns:xlink="http://www.w3.org/1999/xlink" width="700" height="700" viewBox="674,141.5,700,700"><defs><linearGradient x1="1031.97498" y1="153.2079" x2="1028.81665" y2="753.1782" gradientUnits="userSpaceOnUse" id="color-1"><stop offset="0" stop-color="#59170f"/><stop offset="0.38904" stop-color="#ee2d33"/><stop offset="0.70458" stop-color="#ee2d33"/><stop offset="1" stop-color="#ff862e"/></linearGradient></defs><g id="document" fill="#ffffff" fill-rule="nonzero" stroke="#000000" stroke-width="0" stroke-linecap="butt" stroke-linejoin="miter" stroke-miterlimit="10" stroke-dasharray="" stroke-dashoffset="0" font-family="none" font-weight="none" font-size="none" text-anchor="none" style="mix-blend-mode: normal"><rect x="674" y="101.07143" transform="scale(1,1.4)" width="700" height="500" id="Shape 1 1" vector-effect="non-scaling-stroke"/></g><g fill="url(#color-1)" fill-rule="nonzero" stroke-opacity="0" stroke="#000000" stroke-width="1" stroke-linecap="butt" stroke-linejoin="miter" stroke-miterlimit="10" stroke-dasharray="" stroke-dashoffset="0" font-family="none" font-weight="none" font-size="none" text-anchor="none" style="mix-blend-mode: normal"><g><g id="stage"><g id="Layer2 1"><path d="M949.98071,532.53245l19.53826,-8.80285c8.95717,-4.0356 23.4923,-16.08115 29.07024,-24.09107l1.58577,-2.27717v-33.16337l-11.58333,-33.16337l-50.8172,-45.89796l-34.89947,-28.43372l56.75833,28.58911l27.8,-4.57426l2.23233,-0.88279c8.06457,-3.18917 24.51178,-4.12616 32.89441,-1.87398l67.42291,18.11475l36.45035,21.23607l-60.3292,1.13567l-21.09401,16.48254l20.11163,57.08373l33.51157,40.79808l34.75001,-25.15842l24.325,-40.02475v30.87624l46.33333,-35.4505l20.85,-69.75743l8.10833,14.86634l13.9,-24.01485v-56.03465l-9.26667,-60.60891l-25.48333,-50.31683l-49.80833,-73.18812l39.38333,25.15842l37.48169,9.25094c6.7425,1.66413 17.5573,8.88839 21.62963,14.44851l46.29702,63.21143l41.7,77.76238l23.16667,66.32673v80.0495l-15.05833,53.74752l-22.00833,57.17822l-90.35,107.49505l-27.8,12.57921l35.90833,-52.60396l-3.67613,-27.58236c-1.05777,-7.93654 -9.49709,-12.56061 -16.87864,-9.24814l-23.46189,10.52852l-78.76667,58.32178l-42.85833,57.17822l-19.69167,-11.43564l-42.85833,100.63366l-42.85833,-100.63366l-19.69167,11.43564l-42.85833,-57.17822l-78.76667,-58.32178l-17.13484,-7.68926c-10.54507,-4.7321 -22.60125,1.87371 -24.11235,13.21163l-2.76947,20.77961l35.90833,52.60396l-19.376,-8.76743c-4.212,-1.90589 -11.38272,-7.33194 -14.34144,-10.85212l-84.43256,-100.45471l-22.00833,-57.17822l-15.05833,-53.74752v-80.0495l23.16667,-66.32673l41.7,-77.76238l27.97157,-38.19086c13.23505,-18.07041 48.38319,-41.54925 70.29628,-46.95767l7.14048,-1.76236l39.38333,-25.15842l-49.80833,73.18812l-25.48333,50.31683l-9.26667,60.60891v56.03465l13.9,24.01485l8.10833,-14.86634l20.85,69.75743l46.33333,35.4505v-30.87624l24.325,40.02475z" id="Path 1"/></g></g></g></g></svg>